<svg  viewBox="0 0 14 20" fill="none" xmlns="http://www.w3.org/2000/svg">
<path d="M6.92308 0C3.0956 0 0 3.13 0 7C0 8.74 0.494505 10.37 1.39451 11.84C2.33407 13.38 3.57033 14.7 4.51978 16.24C4.98461 16.99 5.32088 17.69 5.67692 18.5C5.93407 19.05 6.14176 20 6.92308 20C7.7044 20 7.91209 19.05 8.15934 18.5C8.52527 17.69 8.85165 16.99 9.31648 16.24C10.2659 14.71 11.5022 13.39 12.4418 11.84C13.3516 10.37 13.8462 8.74 13.8462 7C13.8462 3.13 10.7505 0 6.92308 0ZM6.92308 9.75C5.55824 9.75 4.45055 8.63 4.45055 7.25C4.45055 5.87 5.55824 4.75 6.92308 4.75C8.28791 4.75 9.3956 5.87 9.3956 7.25C9.3956 8.63 8.28791 9.75 6.92308 9.75Z" fill="black"/>
</svg>
