<svg width="330" height="330" viewBox="0 0 330 330" fill="none" xmlns="http://www.w3.org/2000/svg">
<path d="M99.2052 0H214.205H291.584L329.205 44.5118V161H271.705H214.205H99.2052V0Z" fill="white"/>
<path d="M87.2051 0V80.5V120.75V161H0.205078V120.75V80.5V0H87.2051Z" fill="white"/>
<path d="M153.205 330V173H200.571L195.164 269.592H196.386L221.749 173H259.03L284.394 269.898H285.616L281.84 173H329.205V330H252.484L241.001 242.301H239.779L228.595 330H153.205Z" fill="white"/>
<path d="M0.205078 173H143.205V258L0.205078 214.099V173Z" fill="#0A2B5B"/>
<path d="M0.205121 247L143.205 288V330H0.205121V247Z" fill="white"/>
<path d="M19.2276 178.852L143.205 288L124.277 324.818L0 214.966L19.2276 178.852Z" fill="white"/>
<path d="M233.23 238H248.939L270.205 330H212.205L233.23 238Z" fill="#0A2B5B"/>
<rect width="87" height="70" transform="matrix(1 0 0 -1 0.205078 70)" fill="#0A2B5B"/>
<rect x="29.2051" y="70" width="32" height="91" fill="#0A2B5B"/>
<path d="M0.205078 86.1111L29.2051 70H0.205078V86.1111Z" fill="#1C7AFF"/>
<path d="M68.6581 277L70.2051 222.944L65.1775 173H0.205078V214.913L68.6581 277Z" fill="#0A2B5B"/>
<path d="M284.205 122L264.556 104L256.205 122H284.205Z" fill="#0A2B5B"/>
<rect x="141.205" y="40" width="124" height="82" fill="#1C7AFF"/>
<rect x="235.205" y="40" width="30" height="82" fill="#0A2B5B"/>
<path d="M163.915 75.7988V70.8279L173.145 62.9739C173.757 62.452 174.28 61.9632 174.715 61.5075C175.158 61.0436 175.496 60.5672 175.73 60.0784C175.971 59.5896 176.092 59.047 176.092 58.4505C176.092 57.796 175.955 57.2367 175.682 56.7728C175.416 56.3089 175.045 55.9526 174.57 55.7041C174.095 55.4472 173.547 55.3188 172.927 55.3188C172.307 55.3188 171.759 55.4472 171.284 55.7041C170.817 55.9609 170.455 56.3378 170.197 56.8349C169.939 57.332 169.811 57.9368 169.811 58.6493H163.432C163.432 56.8598 163.823 55.3188 164.604 54.0264C165.385 52.734 166.488 51.7398 167.914 51.0439C169.339 50.348 171.01 50 172.927 50C174.908 50 176.624 50.3273 178.073 50.9817C179.531 51.628 180.655 52.5393 181.444 53.7157C182.241 54.8922 182.64 56.2716 182.64 57.854C182.64 58.8316 182.443 59.805 182.048 60.7743C181.653 61.7354 180.945 62.8 179.922 63.9681C178.899 65.1363 177.445 66.5281 175.561 68.1436L173.241 70.132V70.2811H182.906V75.7988H163.915Z" fill="white"/>
<path d="M200.284 76.4947C198.038 76.4864 196.097 75.952 194.462 74.8916C192.827 73.8311 191.566 72.3026 190.681 70.306C189.795 68.3093 189.356 65.915 189.364 63.1231C189.372 60.3228 189.815 57.9451 190.693 55.9899C191.579 54.0347 192.835 52.5476 194.462 51.5285C196.097 50.5095 198.038 50 200.284 50C202.531 50 204.472 50.5137 206.107 51.541C207.742 52.56 209.002 54.0471 209.888 56.0023C210.774 57.9575 211.213 60.3311 211.205 63.1231C211.205 65.9316 210.762 68.3342 209.876 70.3308C208.99 72.3274 207.73 73.856 206.095 74.9164C204.468 75.9686 202.531 76.4947 200.284 76.4947ZM200.284 70.8776C201.444 70.8776 202.394 70.2563 203.135 69.0135C203.884 67.7625 204.255 65.7991 204.247 63.1231C204.247 61.375 204.078 59.9459 203.739 58.8357C203.401 57.7255 202.934 56.9054 202.338 56.3751C201.742 55.8366 201.058 55.5674 200.284 55.5674C199.125 55.5674 198.178 56.1722 197.446 57.3817C196.713 58.5913 196.338 60.5051 196.322 63.1231C196.314 64.9043 196.479 66.3707 196.817 67.5223C197.156 68.6656 197.623 69.5106 198.219 70.0574C198.823 70.6042 199.511 70.8776 200.284 70.8776Z" fill="white"/>
<path d="M163.688 108V103.029L172.918 95.1752C173.53 94.6532 174.053 94.1644 174.488 93.7088C174.931 93.2448 175.269 92.7685 175.503 92.2797C175.745 91.7909 175.865 91.2482 175.865 90.6517C175.865 89.9972 175.728 89.438 175.455 88.974C175.189 88.5101 174.818 88.1538 174.343 87.9053C173.868 87.6485 173.32 87.5201 172.7 87.5201C172.08 87.5201 171.533 87.6485 171.057 87.9053C170.59 88.1621 170.228 88.5391 169.97 89.0362C169.712 89.5333 169.584 90.138 169.584 90.8505H163.205C163.205 89.061 163.596 87.5201 164.377 86.2276C165.158 84.9352 166.262 83.941 167.687 83.2451C169.112 82.5492 170.784 82.2012 172.7 82.2012C174.682 82.2012 176.397 82.5285 177.847 83.183C179.304 83.8292 180.428 84.7405 181.217 85.917C182.014 87.0934 182.413 88.4728 182.413 90.0552C182.413 91.0328 182.216 92.0063 181.821 92.9756C181.426 93.9366 180.718 95.0012 179.695 96.1694C178.672 97.3375 177.218 98.7293 175.334 100.345L173.014 102.333V102.482H182.679V108H163.688Z" fill="white"/>
<path d="M188.582 104.023V98.6548L198.536 82.5492H203.271V89.7072H200.565L195.202 98.4559V98.6548H209.891V104.023H188.582ZM200.614 108V102.383L200.759 100.047V82.5492H207.04V108H200.614Z" fill="white"/>
</svg>
