<svg width="497" height="499" viewBox="0 0 497 499" fill="none" xmlns="http://www.w3.org/2000/svg">
<path d="M145.765 0H321.383H439.549L497 65.7426V237.793H409.191H321.383H145.765V0Z" fill="white"/>
<path d="M428.101 186.163L397.993 158.53L385.197 186.163H428.101Z" fill="#0A2B5B"/>
<path d="M127.585 0V118.896V178.345V237.793H-4.0376V178.345V118.896V0H127.585Z" fill="white"/>
<path d="M231.743 498.856L228.668 260.337H300.687L292.465 407.082H294.324L332.889 260.337H389.574L428.139 407.548H429.998L424.256 260.337H496.275L489.988 498.856H379.62L362.161 365.621H360.302L343.297 498.856H231.743Z" fill="white"/>
<path d="M-4.0376 260.337H209.758V387.596L-4.0376 321.869V260.337Z" fill="#0A2B5B"/>
<path d="M-4.0376 371.597L209.758 432.694V494.493H-4.0376V371.597Z" fill="white"/>
<path d="M24.2974 268.875L209.745 432.797L181.054 486.688L-4.39438 322.766L24.2974 268.875Z" fill="white"/>
<rect x="210.488" y="63.2637" width="188.344" height="122.896" fill="#1C7AFF"/>
<rect x="354.78" y="63.3784" width="43.9386" height="123.144" fill="#0A2B5B"/>
<path d="M351.019 359.234H374.653L406.649 498.855H319.386L351.019 359.234Z" fill="#0A2B5B"/>
<rect width="131.622" height="107.624" transform="matrix(1 0 0 -1 -3.85498 107.626)" fill="#0A2B5B"/>
<rect x="40.5051" y="107.627" width="49.449" height="130.167" fill="#0A2B5B"/>
<path d="M40.503 107.626H-6.037H-14.3997V135.987L40.503 107.626Z" fill="#1C7AFF"/>
<path d="M98.3725 414.024L100.685 334.241L93.1692 260.528H-3.95825V322.389L98.3725 414.024Z" fill="#0A2B5B"/>
<path d="M245.226 116.985V109.552L259.442 97.8091C260.385 97.0287 261.191 96.2979 261.861 95.6166C262.543 94.9229 263.064 94.2106 263.424 93.4798C263.796 92.7489 263.982 91.9375 263.982 91.0457C263.982 90.0671 263.771 89.2309 263.349 88.5372C262.94 87.8435 262.369 87.3109 261.638 86.9393C260.906 86.5553 260.062 86.3633 259.107 86.3633C258.152 86.3633 257.308 86.5553 256.576 86.9393C255.857 87.3233 255.299 87.8869 254.902 88.6301C254.505 89.3734 254.306 90.2776 254.306 91.3429H244.482C244.482 88.6673 245.083 86.3633 246.287 84.4309C247.49 82.4984 249.189 81.012 251.385 79.9714C253.581 78.9309 256.155 78.4106 259.107 78.4106C262.159 78.4106 264.801 78.8999 267.034 79.8785C269.279 80.8447 271.009 82.2073 272.225 83.9663C273.453 85.7253 274.067 87.7878 274.067 90.1538C274.067 91.6155 273.763 93.071 273.155 94.5203C272.547 95.9572 271.456 97.549 269.88 99.2956C268.305 101.042 266.066 103.123 263.163 105.539L259.591 108.512V108.735H274.476V116.985H245.226Z" fill="white"/>
<path d="M301.245 118.025C297.784 118.013 294.794 117.214 292.276 115.628C289.758 114.043 287.817 111.757 286.452 108.772C285.088 105.787 284.411 102.207 284.424 98.0321C284.436 93.8452 285.119 90.29 286.471 87.3666C287.835 84.4432 289.77 82.2197 292.276 80.6961C294.794 79.1725 297.784 78.4106 301.245 78.4106C304.706 78.4106 307.695 79.1787 310.213 80.7147C312.731 82.2383 314.673 84.4618 316.037 87.3852C317.402 90.3086 318.078 93.8576 318.065 98.0321C318.065 102.231 317.383 105.824 316.019 108.809C314.654 111.794 312.713 114.08 310.195 115.665C307.689 117.239 304.706 118.025 301.245 118.025ZM301.245 109.627C303.031 109.627 304.495 108.698 305.636 106.839C306.79 104.969 307.36 102.033 307.348 98.0321C307.348 95.4184 307.087 93.2816 306.566 91.6217C306.045 89.9618 305.326 88.7354 304.408 87.9427C303.49 87.1375 302.436 86.7349 301.245 86.7349C299.458 86.7349 298.001 87.6392 296.872 89.4477C295.743 91.2562 295.166 94.1177 295.142 98.0321C295.129 100.695 295.383 102.888 295.904 104.61C296.425 106.319 297.145 107.583 298.063 108.4C298.993 109.218 300.054 109.627 301.245 109.627Z" fill="white"/>
<path d="M244.877 165.131V157.699L259.092 145.956C260.035 145.176 260.841 144.445 261.511 143.763C262.194 143.07 262.715 142.357 263.074 141.627C263.446 140.896 263.633 140.084 263.633 139.192C263.633 138.214 263.422 137.378 263 136.684C262.591 135.99 262.02 135.458 261.288 135.086C260.556 134.702 259.713 134.51 258.757 134.51C257.802 134.51 256.959 134.702 256.227 135.086C255.507 135.47 254.949 136.034 254.552 136.777C254.155 137.52 253.957 138.424 253.957 139.49H244.132C244.132 136.814 244.734 134.51 245.937 132.578C247.14 130.645 248.84 129.159 251.036 128.118C253.231 127.078 255.805 126.557 258.757 126.557C261.809 126.557 264.451 127.047 266.684 128.025C268.929 128.992 270.66 130.354 271.875 132.113C273.104 133.872 273.718 135.935 273.718 138.301C273.718 139.762 273.414 141.218 272.806 142.667C272.198 144.104 271.106 145.696 269.531 147.442C267.956 149.189 265.717 151.27 262.814 153.686L259.241 156.659V156.882H274.127V165.131H244.877Z" fill="white"/>
<path d="M283.219 159.186V151.159L298.551 127.078H305.845V137.78H301.677L293.416 150.861V151.159H316.042V159.186H283.219ZM301.752 165.131V156.733L301.975 153.24V127.078H311.651V165.131H301.752Z" fill="white"/>
</svg>
