<svg width="279" height="268" viewBox="0 0 279 268" fill="none" xmlns="http://www.w3.org/2000/svg">
<path d="M90.5176 0.486328H184.44H247.638L278.363 35.6465V127.661H231.402H184.44H90.5176V0.486328Z" fill="#1C7AFF"/>
<path d="M241.513 100.046L225.411 85.2676L218.567 100.046H241.513Z" fill="#0A2B5B"/>
<path d="M80.7946 0.486328V64.0736V95.8672V127.661H10.4014V95.8672V64.0736V0.486328H80.7946Z" fill="#1C7AFF"/>
<path d="M136.497 267.278L134.853 139.714H173.369L168.972 218.196H169.966L190.591 139.714H220.908L241.533 218.445H242.526L239.456 139.714H277.972L274.61 267.278H215.584L206.246 196.022H205.252L196.158 267.278H136.497Z" fill="#1C7AFF"/>
<path d="M10.4004 139.714H124.741V207.774L10.4004 172.622V139.714Z" fill="#0A2B5B"/>
<path d="M10.4014 199.221L124.742 231.896V264.947H10.4014V199.221Z" fill="#1C7AFF"/>
<path d="M25.5557 144.284L124.735 231.951L109.391 260.772L10.211 173.105L25.5557 144.284Z" fill="#1C7AFF"/>
<rect x="125.131" y="34.3218" width="100.728" height="65.7263" fill="white"/>
<rect x="202.302" y="34.3813" width="23.499" height="65.8589" fill="#0A2B5B"/>
<path d="M200.287 192.606H212.927L230.039 267.278H183.37L200.287 192.606Z" fill="#0A2B5B"/>
<rect width="70.3932" height="57.5591" transform="matrix(1 0 0 -1 10.499 58.0444)" fill="#0A2B5B"/>
<rect x="34.2236" y="58.0444" width="26.4461" height="69.6154" fill="#0A2B5B"/>
<path d="M34.2223 58.0444H9.33187H4.85938V73.212L34.2223 58.0444Z" fill="white"/>
<path d="M65.1727 221.91L66.4094 179.241L62.3899 139.818H10.4448V172.902L65.1727 221.91Z" fill="#0A2B5B"/>
<path d="M143.71 63.0503V59.0754L151.313 52.795C151.817 52.3776 152.248 51.9867 152.606 51.6224C152.971 51.2514 153.25 50.8705 153.442 50.4796C153.641 50.0887 153.741 49.6548 153.741 49.1778C153.741 48.6544 153.628 48.2073 153.403 47.8363C153.184 47.4653 152.878 47.1804 152.487 46.9816C152.096 46.7763 151.644 46.6736 151.134 46.6736C150.623 46.6736 150.172 46.7763 149.78 46.9816C149.395 47.187 149.097 47.4884 148.885 47.8859C148.672 48.2834 148.566 48.7671 148.566 49.3368H143.312C143.312 47.9058 143.634 46.6736 144.277 45.6401C144.921 44.6066 145.83 43.8116 147.004 43.2551C148.178 42.6987 149.555 42.4204 151.134 42.4204C152.766 42.4204 154.179 42.6821 155.373 43.2055C156.574 43.7222 157.499 44.4509 158.149 45.3917C158.806 46.3324 159.135 47.4354 159.135 48.7008C159.135 49.4825 158.972 50.261 158.647 51.0361C158.322 51.8046 157.738 52.6559 156.895 53.59C156.053 54.5241 154.855 55.6371 153.303 56.9289L151.392 58.5189V58.6381H159.353V63.0503H143.71Z" fill="#0A2B5B"/>
<path d="M173.67 63.6068C171.819 63.6002 170.22 63.1729 168.873 62.3249C167.526 61.4769 166.488 60.2546 165.758 58.658C165.028 57.0614 164.667 55.1468 164.673 52.9142C164.68 50.675 165.045 48.7737 165.768 47.2102C166.498 45.6467 167.533 44.4576 168.873 43.6427C170.22 42.8278 171.819 42.4204 173.67 42.4204C175.52 42.4204 177.119 42.8312 178.466 43.6526C179.813 44.4675 180.851 45.6567 181.581 47.2201C182.311 48.7836 182.672 50.6816 182.666 52.9142C182.666 55.1601 182.301 57.0813 181.571 58.6779C180.841 60.2745 179.803 61.4968 178.456 62.3448C177.116 63.1861 175.52 63.6068 173.67 63.6068ZM173.67 59.1151C174.625 59.1151 175.408 58.6183 176.018 57.6245C176.635 56.6242 176.94 55.0541 176.934 52.9142C176.934 51.5164 176.794 50.3736 176.516 49.4859C176.237 48.5981 175.852 47.9423 175.361 47.5183C174.87 47.0876 174.306 46.8723 173.67 46.8723C172.714 46.8723 171.935 47.356 171.331 48.3232C170.727 49.2904 170.419 50.8208 170.405 52.9142C170.399 54.3386 170.535 55.5112 170.813 56.432C171.092 57.3463 171.477 58.022 171.968 58.4593C172.465 58.8965 173.033 59.1151 173.67 59.1151Z" fill="#0A2B5B"/>
<path d="M143.523 88.7999V84.825L151.126 78.5446C151.63 78.1272 152.061 77.7364 152.42 77.372C152.784 77.001 153.063 76.6201 153.255 76.2292C153.454 75.8383 153.554 75.4044 153.554 74.9274C153.554 74.404 153.441 73.9569 153.216 73.5859C152.997 73.2149 152.692 72.93 152.3 72.7313C151.909 72.5259 151.458 72.4232 150.947 72.4232C150.436 72.4232 149.985 72.5259 149.593 72.7313C149.209 72.9366 148.91 73.2381 148.698 73.6356C148.485 74.033 148.379 74.5167 148.379 75.0864H143.125C143.125 73.6554 143.447 72.4232 144.09 71.3897C144.734 70.3562 145.643 69.5613 146.817 69.0048C147.991 68.4483 149.368 68.17 150.947 68.17C152.579 68.17 153.992 68.4317 155.186 68.9551C156.387 69.4718 157.312 70.2006 157.962 71.1413C158.619 72.082 158.948 73.1851 158.948 74.4504C158.948 75.2322 158.785 76.0106 158.46 76.7857C158.135 77.5542 157.551 78.4055 156.709 79.3396C155.866 80.2737 154.669 81.3867 153.116 82.6785L151.205 84.2685V84.3877H159.167V88.7999H143.523Z" fill="#0A2B5B"/>
<path d="M164.029 85.62V81.327L172.229 68.4483H176.13V74.1722H173.901L169.482 81.1681V81.327H181.583V85.62H164.029ZM173.941 88.7999V84.3083L174.06 82.44V68.4483H179.235V88.7999H173.941Z" fill="#0A2B5B"/>
</svg>
