<svg width="306" height="306" viewBox="0 0 306 306" fill="none" xmlns="http://www.w3.org/2000/svg">
<path d="M91.9901 0H198.626H270.378L305.263 41.2745V149.291H251.945H198.626H91.9901V0Z" fill="#1C7AFF"/>
<path d="M80.8629 0V74.6455V111.968V149.291H0.190186V111.968V74.6455V0H80.8629Z" fill="#1C7AFF"/>
<path d="M142.063 306V160.418H185.983L180.97 249.985H182.103L205.622 160.418H240.192L263.71 250.27H264.844L261.342 160.418H305.263V306H234.121L223.473 224.679H222.34L211.969 306H142.063Z" fill="#1C7AFF"/>
<path d="M0.190186 160.418H132.79V239.236L0.190186 198.528V160.418Z" fill="#0A2B5B"/>
<path d="M0.190203 229.036L132.79 267.055V306H0.190203V229.036Z" fill="#1C7AFF"/>
<path d="M17.8292 165.845L132.79 267.055L115.238 301.195L0 199.333L17.8292 165.845Z" fill="#1C7AFF"/>
<path d="M216.268 220.691H230.834L250.554 306H196.772L216.268 220.691Z" fill="#0A2B5B"/>
<rect width="80.6727" height="64.9091" transform="matrix(1 0 0 -1 0.190186 64.9091)" fill="#0A2B5B"/>
<rect x="27.0812" y="64.9091" width="29.6727" height="84.3818" fill="#0A2B5B"/>
<path d="M0.190186 79.8485L27.0811 64.9091H0.190186V79.8485Z" fill="white"/>
<path d="M63.6648 256.855L65.0993 206.729L60.4373 160.418H0.190186V199.283L63.6648 256.855Z" fill="#0A2B5B"/>
<path d="M263.535 113.127L245.315 96.4364L237.572 113.127H263.535Z" fill="#0A2B5B"/>
<rect x="130.936" y="37.0909" width="114.982" height="76.0364" fill="white"/>
<rect x="218.099" y="37.0909" width="27.8182" height="76.0364" fill="#0A2B5B"/>
<path d="M151.994 70.2861V65.6768L160.552 58.394C161.12 57.9101 161.605 57.4568 162.008 57.0343C162.419 56.6041 162.733 56.1623 162.949 55.7091C163.173 55.2558 163.285 54.7527 163.285 54.1995C163.285 53.5926 163.158 53.0741 162.905 52.6439C162.658 52.2137 162.315 51.8833 161.874 51.6529C161.433 51.4147 160.926 51.2956 160.351 51.2956C159.776 51.2956 159.268 51.4147 158.827 51.6529C158.394 51.891 158.058 52.2406 157.819 52.7015C157.58 53.1624 157.46 53.7232 157.46 54.3839H151.546C151.546 52.7245 151.908 51.2956 152.633 50.0972C153.357 48.8988 154.38 47.9769 155.702 47.3316C157.024 46.6863 158.573 46.3636 160.351 46.3636C162.188 46.3636 163.778 46.6671 165.123 47.274C166.474 47.8732 167.516 48.7183 168.248 49.8091C168.987 50.9 169.357 52.1791 169.357 53.6464C169.357 54.5529 169.174 55.4556 168.808 56.3544C168.442 57.2455 167.785 58.2327 166.836 59.3159C165.888 60.3991 164.54 61.6897 162.793 63.1877L160.642 65.0315V65.1698H169.603V70.2861H151.994Z" fill="#0A2B5B"/>
<path d="M185.718 70.9314C183.635 70.9238 181.835 70.4283 180.319 69.4449C178.803 68.4616 177.634 67.0442 176.813 65.1928C175.991 63.3414 175.584 61.1212 175.592 58.5323C175.599 55.9357 176.01 53.7309 176.824 51.9179C177.645 50.1049 178.81 48.7259 180.319 47.781C181.835 46.8361 183.635 46.3636 185.718 46.3636C187.802 46.3636 189.601 46.8399 191.117 47.7925C192.633 48.7375 193.802 50.1164 194.624 51.9294C195.445 53.7424 195.852 55.9434 195.845 58.5323C195.845 61.1366 195.434 63.3644 194.612 65.2159C193.791 67.0673 192.622 68.4847 191.106 69.468C189.598 70.4436 187.802 70.9314 185.718 70.9314ZM185.718 65.7229C186.794 65.7229 187.675 65.1467 188.362 63.9944C189.056 62.8344 189.4 61.0137 189.392 58.5323C189.392 56.9114 189.236 55.5862 188.922 54.5568C188.608 53.5273 188.175 52.7668 187.622 52.2751C187.07 51.7758 186.435 51.5261 185.718 51.5261C184.643 51.5261 183.765 52.0869 183.086 53.2085C182.406 54.3301 182.059 56.1047 182.044 58.5323C182.037 60.184 182.19 61.5437 182.503 62.6116C182.817 63.6717 183.25 64.4553 183.803 64.9623C184.363 65.4694 185.001 65.7229 185.718 65.7229Z" fill="#0A2B5B"/>
<path d="M151.784 100.145V95.5361L160.342 88.2534C160.909 87.7694 161.395 87.3161 161.798 86.8936C162.209 86.4634 162.522 86.0217 162.739 85.5684C162.963 85.1152 163.075 84.612 163.075 84.0589C163.075 83.452 162.948 82.9334 162.694 82.5032C162.448 82.073 162.104 81.7427 161.664 81.5122C161.223 81.274 160.715 81.155 160.14 81.155C159.565 81.155 159.057 81.274 158.617 81.5122C158.184 81.7503 157.848 82.0999 157.609 82.5608C157.37 83.0218 157.25 83.5826 157.25 84.2432H151.336C151.336 82.5839 151.698 81.155 152.422 79.9565C153.147 78.7581 154.17 77.8362 155.491 77.1909C156.813 76.5456 158.363 76.223 160.14 76.223C161.977 76.223 163.568 76.5264 164.912 77.1333C166.264 77.7325 167.306 78.5776 168.037 79.6685C168.777 80.7593 169.146 82.0384 169.146 83.5057C169.146 84.4122 168.963 85.3149 168.598 86.2137C168.232 87.1049 167.574 88.092 166.626 89.1752C165.678 90.2584 164.33 91.549 162.582 93.0471L160.431 94.8908V95.0291H169.393V100.145H151.784Z" fill="#0A2B5B"/>
<path d="M174.866 96.458V91.4799L184.097 76.5456H188.488V83.1831H185.979L181.005 91.2955V91.4799H194.626V96.458H174.866ZM186.023 100.145V94.9369L186.158 92.7705V76.5456H191.983V100.145H186.023Z" fill="#0A2B5B"/>
</svg>
